<svg version="1.1" id="Layer_1" xmlns="http://www.w3.org/2000/svg" xmlns:xlink="http://www.w3.org/1999/xlink" x="0px" y="0px"
	 width="100%" viewBox="0 0 552 361" enable-background="new 0 0 552 361" xml:space="preserve">
<path fill="white" opacity="1.000000" stroke="none" 
	d="
M403.000000,362.000000 
	C268.703278,362.000000 134.906586,362.000000 1.054934,362.000000 
	C1.054934,241.736237 1.054934,121.472450 1.054934,1.104327 
	C184.880051,1.104327 368.760193,1.104327 552.820190,1.104327 
	C552.820190,121.333107 552.820190,241.666534 552.820190,362.000000 
	C503.139069,362.000000 453.319550,362.000000 403.000000,362.000000 
M218.416153,306.922913 
	C218.233032,307.270966 218.049911,307.618988 217.284088,308.310059 
	C209.224121,322.009033 201.164154,335.708008 192.980820,349.616669 
	C268.647156,349.616669 343.770142,349.616669 419.433075,349.616669 
	C349.685242,233.450165 280.250702,117.805405 210.584137,1.774243 
	C140.776566,118.426262 71.347282,234.446121 1.601245,350.995331 
	C18.987093,351.684448 35.600807,352.216461 52.196178,353.094971 
	C56.064442,353.299744 58.049683,352.035889 59.988251,348.753723 
	C101.582619,278.331268 143.299606,207.981186 184.997925,137.620132 
	C193.045486,124.040817 201.114410,110.474167 209.490707,96.367424 
	C252.931961,166.950256 296.078979,237.055054 338.912323,306.650177 
	C300.629181,306.650177 262.803741,306.646118 224.978302,306.661621 
	C222.993164,306.662445 221.008072,306.829254 218.416153,306.922913 
M416.681824,126.840698 
	C391.701874,85.495811 366.721924,44.150917 341.696136,2.730127 
	C341.184998,3.238853 340.890900,3.435688 340.725128,3.710046 
	C323.103088,32.876282 305.452820,62.025764 288.002075,91.294197 
	C287.221191,92.603867 287.627167,95.406990 288.546967,96.820297 
	C295.805023,107.972801 303.318237,118.959381 310.764801,129.988998 
	C312.000305,131.818970 313.293579,133.609955 314.829895,135.804245 
	C323.484924,122.378281 331.788452,109.497551 340.293793,96.303787 
	C341.330444,97.921486 341.979889,98.885307 342.580139,99.878860 
	C373.953400,151.810638 405.324219,203.743912 436.691376,255.679352 
	C455.752441,287.239288 474.787201,318.815216 493.927887,350.326752 
	C494.827271,351.807465 496.631653,353.741608 498.036713,353.759857 
	C515.959167,353.992493 533.885742,353.913208 551.811218,353.913208 
	C552.084290,353.283234 552.357300,352.653259 552.630371,352.023254 
	C507.425018,277.179077 462.219666,202.334900 416.681824,126.840698 
M246.538895,227.054733 
	C249.127548,222.795044 251.520447,218.398209 254.374771,214.324661 
	C256.228912,211.678482 255.862900,209.838516 254.149063,207.294037 
	C247.649933,197.645050 241.422913,187.812912 235.081329,178.057571 
	C232.390991,173.918991 229.669052,169.800949 226.715256,165.298233 
	C190.328979,227.973801 154.273102,290.080261 117.243027,353.864807 
	C134.053589,353.864807 149.465988,353.752197 164.874191,353.956024 
	C168.113968,353.998871 169.861420,353.113586 171.568985,350.292328 
	C196.340332,309.364624 221.255554,268.523987 246.538895,227.054733 
z"/>
<path fill="#E31E24" opacity="1.000000" stroke="none" 
	d="
M219.022980,306.918762 
	C221.008072,306.829254 222.993164,306.662445 224.978302,306.661621 
	C262.803741,306.646118 300.629181,306.650177 338.912323,306.650177 
	C296.078979,237.055054 252.931961,166.950256 209.490707,96.367424 
	C201.114410,110.474167 193.045486,124.040817 184.997925,137.620132 
	C143.299606,207.981186 101.582619,278.331268 59.988251,348.753723 
	C58.049683,352.035889 56.064442,353.299744 52.196178,353.094971 
	C35.600807,352.216461 18.987093,351.684448 1.601245,350.995331 
	C71.347282,234.446121 140.776566,118.426262 210.584137,1.774243 
	C280.250702,117.805405 349.685242,233.450165 419.433075,349.616669 
	C343.770142,349.616669 268.647156,349.616669 192.980820,349.616669 
	C201.164154,335.708008 209.224121,322.009033 217.825119,308.033752 
	C218.585083,307.477905 218.804031,307.198334 219.022980,306.918762 
z"/>
<path fill="#2B2A29" opacity="1.000000" stroke="none" 
	d="
M416.848083,127.165710 
	C462.219666,202.334900 507.425018,277.179077 552.630371,352.023254 
	C552.357300,352.653259 552.084290,353.283234 551.811218,353.913208 
	C533.885742,353.913208 515.959167,353.992493 498.036713,353.759857 
	C496.631653,353.741608 494.827271,351.807465 493.927887,350.326752 
	C474.787201,318.815216 455.752441,287.239288 436.691376,255.679352 
	C405.324219,203.743912 373.953400,151.810638 342.580139,99.878860 
	C341.979889,98.885307 341.330444,97.921486 340.293793,96.303787 
	C331.788452,109.497551 323.484924,122.378281 314.829895,135.804245 
	C313.293579,133.609955 312.000305,131.818970 310.764801,129.988998 
	C303.318237,118.959381 295.805023,107.972801 288.546967,96.820297 
	C287.627167,95.406990 287.221191,92.603867 288.002075,91.294197 
	C305.452820,62.025764 323.103088,32.876282 340.725128,3.710046 
	C340.890900,3.435688 341.184998,3.238853 341.696136,2.730127 
	C366.721924,44.150917 391.701874,85.495811 416.848083,127.165710 
z"/>
<path fill="#2C2B2A" opacity="1.000000" stroke="none" 
	d="
M246.337631,227.358643 
	C221.255554,268.523987 196.340332,309.364624 171.568985,350.292328 
	C169.861420,353.113586 168.113968,353.998871 164.874191,353.956024 
	C149.465988,353.752197 134.053589,353.864807 117.243027,353.864807 
	C154.273102,290.080261 190.328979,227.973801 226.715256,165.298233 
	C229.669052,169.800949 232.390991,173.918991 235.081329,178.057571 
	C241.422913,187.812912 247.649933,197.645050 254.149063,207.294037 
	C255.862900,209.838516 256.228912,211.678482 254.374771,214.324661 
	C251.520447,218.398209 249.127548,222.795044 246.337631,227.358643 
z"/>
<path fill="#E00A10" opacity="1.000000" stroke="none" 
	d="
M218.719574,306.920837 
	C218.804031,307.198334 218.585083,307.477905 218.116470,307.862244 
	C218.049911,307.618988 218.233032,307.270966 218.719574,306.920837 
z"/>
</svg>